<svg width="25" height="24" viewBox="0 0 25 24" fill="none" xmlns="http://www.w3.org/2000/svg">
<g id="Apple logo">
<path id="Vector" d="M16.21 6.56445C16.8841 6.61441 18.7885 6.81481 20.0283 8.62305C19.7921 8.76697 17.7446 10.0519 17.7686 12.626L17.7783 12.9189C17.9572 15.7479 20.334 16.7856 20.5801 16.8857C20.5267 17.0583 20.1557 18.2648 19.3184 19.5732L19.1357 19.8486C18.6978 20.4894 18.2533 21.1264 17.7402 21.6064C17.2275 22.0861 16.6473 22.4077 15.9385 22.4209L15.6875 22.416C15.1251 22.3821 14.7186 22.2009 14.29 22.0156C13.7995 21.8035 13.2805 21.5869 12.4727 21.5869C11.665 21.587 11.1344 21.7902 10.6406 21.999C10.147 22.2078 9.69169 22.4213 9.03125 22.4473H8.9043C8.27363 22.4291 7.7121 22.099 7.20215 21.6211C6.79403 21.2386 6.42054 20.7631 6.07324 20.2803L5.73438 19.7988C4.8346 18.4977 4.04026 16.658 3.70215 14.7432C3.38526 12.9481 3.46976 11.0891 4.24121 9.54492L4.4043 9.24023C5.26256 7.74996 6.75442 6.77163 8.39941 6.63379L8.73047 6.61816C9.40453 6.60543 10.0609 6.83218 10.6543 7.06348C10.95 7.17875 11.231 7.29513 11.4893 7.38281C11.7476 7.47049 11.9862 7.53018 12.1973 7.53027C12.4059 7.53027 12.6548 7.46094 12.9346 7.36035C13.2137 7.25997 13.5303 7.12609 13.8711 6.99805C14.4698 6.77313 15.1534 6.56159 15.8906 6.55469L16.21 6.56445ZM16.2168 1.49219C16.3365 2.63143 15.915 3.77567 15.2627 4.63867L15.1289 4.80859C14.402 5.68843 13.2142 6.36916 12.0508 6.28711C11.9081 5.17134 12.4166 4.00927 13.0352 3.22656L13.1602 3.07422C13.9097 2.19725 15.1708 1.54181 16.2168 1.49219Z" fill="white" stroke="white" stroke-width="0.0426041"/>
</g>
</svg>
