<svg width="20" height="20" viewBox="0 0 20 20" fill="none" xmlns="http://www.w3.org/2000/svg">
<g id="Bag/Carry bag">
<path id="Vector" d="M8.33254 10L7.49921 13.3333M11.6659 10L12.4992 13.3333M6.66587 5.84646C7.01321 5.83333 7.42728 5.83333 7.93848 5.83333H12.0599C12.5711 5.83333 12.9852 5.83333 13.3325 5.84646M6.66587 5.84646C6.09913 5.86789 5.71008 5.92427 5.36673 6.07264C4.87833 6.2837 4.45697 6.62434 4.14826 7.05768C3.79823 7.54901 3.65729 8.20674 3.3754 9.5222L3.04819 11.0492C2.57511 13.2569 2.33857 14.3608 2.62871 15.2262C2.88314 15.9851 3.40217 16.6272 4.09094 17.035C4.87638 17.5 6.0053 17.5 8.26314 17.5H11.7353C13.9931 17.5 15.122 17.5 15.9075 17.035C16.5963 16.6272 17.1153 15.9851 17.3697 15.2262C17.6598 14.3608 17.4233 13.2569 16.9502 11.0492L16.623 9.5222C16.3411 8.20674 16.2002 7.54901 15.8502 7.05768C15.5414 6.62434 15.1201 6.2837 14.6317 6.07264C14.2883 5.92427 13.8993 5.86789 13.3325 5.84646M6.66587 5.84646C6.66587 4.02489 8.17216 2.5 9.99921 2.5C11.8263 2.5 13.3325 4.02489 13.3325 5.84646" stroke="#170033" stroke-width="2" stroke-linecap="round" stroke-linejoin="round"/>
</g>
</svg>
