<svg width="24" height="24" viewBox="0 0 24 24" fill="none" xmlns="http://www.w3.org/2000/svg">
<g id="Cart">
<path id="Vector" d="M2 3C3.95912 2.99998 5.6688 4.21685 6.34975 5.98206M6.34975 5.98206C6.46866 6.29032 6.55621 6.6153 6.60823 6.95344L7.52962 12.9425C7.79453 14.6644 9.34661 15.8877 11.0827 15.7431L18.0923 15.1589C19.2006 15.0666 20.086 14.2014 20.2237 13.0978C20.4396 11.3666 20.6136 10.2577 20.8382 8.39787C20.8779 8.06902 20.8978 7.90453 20.8748 7.7642C20.8168 7.41027 20.5687 7.11024 20.232 6.98686C20.0984 6.93794 19.9314 6.92645 19.5972 6.90346L6.34975 5.98206ZM12 20C12 20.5522 11.5523 21 11 21C10.4477 21 10 20.5522 10 20C10 19.4477 10.4477 18.9999 11 18.9999C11.5523 18.9999 12 19.4477 12 20ZM20 20C20 20.5522 19.5523 21 19 21C18.4477 21 18 20.5522 18 20C18 19.4477 18.4477 18.9999 19 18.9999C19.5523 18.9999 20 19.4477 20 20Z" stroke="#170033" stroke-width="2" stroke-linecap="round" stroke-linejoin="round"/>
</g>
</svg>
