<svg width="25" height="24" viewBox="0 0 25 24" fill="none" xmlns="http://www.w3.org/2000/svg">
<path d="M20.9098 7.20903L17.8974 9.55205C15.9711 11.0503 15.0079 11.7994 13.9398 12.0867C12.9976 12.3401 12.0024 12.3401 11.0602 12.0867C9.99205 11.7994 9.02891 11.0503 7.10263 9.55205L4.09018 7.20903M20.9098 7.20903C20.4756 6.46813 19.8272 5.86533 19.043 5.47685C18.0804 5 16.8202 5 14.3 5H10.7C8.17976 5 6.91965 5 5.95704 5.47685C5.17282 5.86533 4.52441 6.46813 4.09018 7.20903M20.9098 7.20903C20.9444 7.26809 20.9777 7.32802 21.0095 7.38879C21.5 8.32466 21.5 9.54977 21.5 12C21.5 14.4502 21.5 15.6753 21.0095 16.6112C20.5781 17.4344 19.8897 18.1037 19.043 18.5232C18.0804 19 16.8202 19 14.3 19H10.7C8.17976 19 6.91965 19 5.95704 18.5232C5.11031 18.1037 4.4219 17.4344 3.99047 16.6112C3.5 15.6753 3.5 14.4502 3.5 12C3.5 9.54977 3.5 8.32466 3.99047 7.38879C4.02232 7.32802 4.05557 7.26809 4.09018 7.20903" stroke="#170033" stroke-width="2" stroke-linecap="round" stroke-linejoin="round"/>
</svg>
