<svg width="21" height="22" viewBox="0 0 21 22" fill="none" xmlns="http://www.w3.org/2000/svg">
<g id="google logo" clip-path="url(#clip0_431_5495)">
<path id="Vector" d="M20.4482 9.09277C20.5941 9.73146 20.6631 10.3514 20.6631 11.1982C20.6631 14.3766 19.5288 17.054 17.5635 18.876L17.3789 18.8574L14.29 16.4658L14.3037 16.374C15.7033 15.3875 16.3348 13.9267 16.4521 12.9521L16.458 12.9072H10.6689V9.09277H20.4482Z" fill="white" stroke="white" stroke-width="0.0803863"/>
<path id="Vector_2" d="M10.629 21.4589C13.4624 21.4589 15.8411 20.526 17.5786 18.9169L14.267 16.3516C13.3808 16.9696 12.1914 17.401 10.629 17.401C7.85379 17.401 5.49839 15.5704 4.65875 13.04L4.53568 13.0505L1.29627 15.5575L1.25391 15.6753C2.97964 19.1034 6.52444 21.4589 10.629 21.4589Z" fill="white"/>
<path id="Vector_3" d="M4.65704 13.0406C4.43549 12.3876 4.30728 11.688 4.30728 10.9651C4.30728 10.2421 4.43549 9.54245 4.64538 8.88948L4.63951 8.75041L1.35951 6.20312L1.25219 6.25417C0.540934 7.67677 0.132812 9.27429 0.132812 10.9651C0.132812 12.6558 0.540934 14.2533 1.25219 15.6759L4.65704 13.0406Z" fill="white"/>
<path id="Vector_4" d="M10.629 4.52853C12.5996 4.52853 13.9288 5.37974 14.6868 6.09108L17.6485 3.19926C15.8296 1.50849 13.4624 0.470703 10.629 0.470703C6.52444 0.470703 2.97964 2.8261 1.25391 6.25426L4.64709 8.88957C5.49839 6.35925 7.85379 4.52853 10.629 4.52853Z" fill="white"/>
</g>
<defs>
<clipPath id="clip0_431_5495">
<rect width="20.5789" height="21.0612" fill="white" transform="translate(0.132812 0.469727)"/>
</clipPath>
</defs>
</svg>
